<svg width="87" height="44" viewBox="0 0 87 44" fill="none" xmlns="http://www.w3.org/2000/svg">
<path d="M14.0325 16.8236C13.6542 16.7673 13.2709 16.8338 12.8825 17.018C12.4235 17.2584 11.9443 17.4272 11.4449 17.5244C10.9456 17.6164 10.4513 17.6625 9.95191 17.6625C9.04902 17.6625 8.20666 17.5295 7.43492 17.2584C6.65814 16.9873 5.98728 16.573 5.4173 16.0103C4.84733 15.4476 4.39841 14.7469 4.07559 13.908C3.75277 13.064 3.59136 12.0768 3.59136 10.9361C3.59136 9.96426 3.7326 9.07424 4.02011 8.27117C4.30762 7.4681 4.72627 6.77245 5.28112 6.18421C5.83596 5.59598 6.50177 5.14073 7.28865 4.8236C8.07047 4.50646 8.96327 4.3479 9.95695 4.3479C10.4916 4.3479 11.0011 4.40416 11.4903 4.51669C11.9796 4.62923 12.4437 4.78779 12.8875 4.9924C13.2759 5.18165 13.6593 5.25327 14.0376 5.21746C14.4159 5.18165 14.7236 4.9924 14.9657 4.6548C15.3137 4.22513 15.4499 3.74943 15.3642 3.22257C15.2784 2.69572 15.001 2.3172 14.5218 2.07168C13.8409 1.71874 13.1095 1.44764 12.3377 1.25838C11.561 1.06912 10.769 0.977051 9.95695 0.977051C8.51939 0.977051 7.19281 1.22257 5.97215 1.71874C4.75653 2.2149 3.69728 2.90544 2.80449 3.79546C1.91169 4.68549 1.22066 5.73408 0.731385 6.95148C0.242113 8.16887 0 9.49368 0 10.9361C0 12.5985 0.267333 14.0615 0.802002 15.3249C1.33667 16.5883 2.06806 17.6369 3.00121 18.4809C3.93435 19.3249 4.99361 19.9592 6.184 20.3888C7.3744 20.8185 8.63036 21.0333 9.96199 21.0333C10.4967 21.0333 11.0212 20.9924 11.5408 20.9054C12.0553 20.8185 12.5698 20.7008 13.0742 20.5423C13.5786 20.3837 14.0729 20.1842 14.5521 19.9387C15.0111 19.7136 15.2935 19.3556 15.3944 18.8594C15.4953 18.3632 15.3642 17.8824 14.996 17.417C14.7387 17.0794 14.4209 16.885 14.0426 16.8287L14.0325 16.8236Z" fill="#FAF0E6"/>
<path d="M28.4988 6.46033C27.3639 5.79537 26.0978 5.46289 24.6956 5.46289C23.2934 5.46289 22.0273 5.79537 20.8924 6.46033C19.7575 7.12529 18.8546 8.0409 18.1837 9.20714C17.5129 10.3785 17.1749 11.7289 17.1749 13.2583C17.1749 14.7877 17.5129 16.1432 18.1837 17.3094C18.8546 18.4808 19.7625 19.3913 20.8924 20.046C22.0273 20.7007 23.2934 21.0281 24.6956 21.0281C26.0978 21.0281 27.3639 20.7007 28.4988 20.046C29.6337 19.3913 30.5366 18.4808 31.2075 17.3094C31.8783 16.1432 32.2163 14.7877 32.2163 13.2583C32.2163 11.7289 31.8783 10.3734 31.2075 9.20714C30.5366 8.0409 29.6337 7.12018 28.4988 6.46033ZM28.3324 15.7186C27.9541 16.4194 27.4497 16.9667 26.8091 17.3606C26.1685 17.7545 25.4673 17.9488 24.6956 17.9488C23.9239 17.9488 23.2177 17.7545 22.5821 17.3606C21.9466 16.9667 21.4371 16.4194 21.0588 15.7186C20.6805 15.0179 20.4939 14.1995 20.4939 13.2634C20.4939 12.3273 20.6805 11.4834 21.0588 10.7826C21.4371 10.0818 21.9416 9.5345 22.5821 9.14064C23.2227 8.74678 23.9239 8.5524 24.6956 8.5524C25.4673 8.5524 26.1735 8.74678 26.8091 9.14064C27.4446 9.5345 27.9541 10.0818 28.3324 10.7826C28.7107 11.4834 28.8973 12.312 28.8973 13.2634C28.8973 14.2148 28.7056 15.0179 28.3324 15.7186Z" fill="#FAF0E6"/>
<path d="M43.0207 20.6803C43.621 20.445 44.1405 20.1637 44.5844 19.8261C44.9122 19.5754 45.1897 19.3248 45.4166 19.0691C45.4217 19.5448 45.578 19.9386 45.8857 20.2609C46.1985 20.5882 46.5969 20.7519 47.0761 20.7519C47.5553 20.7519 47.9538 20.5882 48.2665 20.2609C48.5792 19.9335 48.7356 19.5294 48.7356 19.0384V1.70844C48.7356 1.20205 48.5792 0.792839 48.2665 0.475703C47.9538 0.158568 47.5553 0 47.0761 0C46.5969 0 46.1985 0.163683 45.8857 0.491049C45.573 0.818414 45.4166 1.22762 45.4166 1.71356V7.22251C45.2552 7.06905 45.0787 6.9156 44.8769 6.76215C44.3876 6.38875 43.8126 6.08184 43.1468 5.83632C42.481 5.59591 41.7547 5.47315 40.9627 5.47315C39.7269 5.47315 38.6021 5.80563 37.5883 6.47059C36.5744 7.13555 35.7674 8.05115 35.1671 9.21739C34.5669 10.3887 34.2693 11.7391 34.2693 13.2685C34.2693 14.798 34.5669 16.1228 35.1671 17.2941C35.7674 18.4655 36.5845 19.3811 37.6135 20.0409C38.6475 20.7059 39.7976 21.0384 41.0687 21.0384C41.7698 21.0384 42.4205 20.9207 43.0207 20.6854V20.6803ZM37.9565 15.6471C37.6135 14.9361 37.447 14.1432 37.447 13.2634C37.447 12.3836 37.6185 11.5601 37.9565 10.8491C38.2995 10.1381 38.7736 9.57545 39.3789 9.16624C39.9892 8.75703 40.6904 8.54731 41.4823 8.54731C42.2742 8.54731 43.0056 8.75192 43.6109 9.16624C44.2212 9.57545 44.6953 10.1381 45.0333 10.8491C45.3763 11.5601 45.5427 12.3632 45.5427 13.2634C45.5427 14.1637 45.3712 14.9361 45.0333 15.6471C44.6903 16.3581 44.2161 16.9207 43.6109 17.3299C43.0005 17.7391 42.2944 17.9489 41.4823 17.9489C40.6702 17.9489 39.9892 17.7442 39.3789 17.3299C38.7686 16.9207 38.2944 16.3581 37.9565 15.6471Z" fill="#FAF0E6"/>
<path d="M61.8148 20.5678C62.6824 20.2609 63.3532 19.8977 63.8324 19.4885C64.3469 19.0793 64.6092 18.6189 64.6092 18.1125C64.6092 17.7391 64.473 17.4118 64.2107 17.1304C63.9434 16.8491 63.6054 16.711 63.2019 16.711C62.9043 16.711 62.5916 16.7928 62.2587 16.9616C62.0569 17.0742 61.8299 17.2123 61.5828 17.3657C61.3356 17.5243 61.0077 17.6624 60.5992 17.7749C60.1957 17.8875 59.6509 17.9437 58.9649 17.9437C58.2285 17.9437 57.5324 17.7596 56.8767 17.3964C56.2209 17.0332 55.6863 16.5013 55.2727 15.7954C55.0305 15.3862 54.8691 14.9207 54.7682 14.4092H63.8879C64.3318 14.4092 64.7202 14.2711 65.048 13.9898C65.3809 13.7084 65.5524 13.3453 65.5726 12.8951C65.5726 11.8875 65.3809 10.9309 65.0077 10.0358C64.6294 9.14065 64.1199 8.34781 63.4743 7.66751C62.8286 6.9872 62.0872 6.445 61.2499 6.05625C60.4125 5.66239 59.5197 5.46802 58.5816 5.46802C57.3659 5.46802 56.2108 5.78515 55.1264 6.41942C54.0369 7.0537 53.1592 7.9693 52.4833 9.156C51.8124 10.3427 51.4745 11.78 51.4745 13.4629C51.4745 14.9054 51.7822 16.1944 52.4026 17.335C53.018 18.4757 53.9057 19.3811 55.0558 20.0409C56.2058 20.7059 57.5677 21.0384 59.1364 21.0384C60.0595 21.0384 60.9523 20.8849 61.8198 20.578L61.8148 20.5678ZM55.7871 9.5294C56.1352 9.17646 56.5538 8.9207 57.033 8.77237C57.5122 8.62403 58.0267 8.5473 58.5816 8.5473C59.1364 8.5473 59.6912 8.67518 60.2007 8.92582C60.7051 9.17646 61.1338 9.51917 61.4718 9.94884C61.8148 10.3785 62.0014 10.8644 62.0367 11.4066V11.601H54.7935C54.8389 11.3708 54.8893 11.1509 54.9549 10.9565C55.1566 10.358 55.4341 9.88234 55.7871 9.52428V9.5294Z" fill="#FAF0E6"/>
<path d="M76.5283 3.11006L79.2924 4.59855C79.4034 4.65481 79.5143 4.69573 79.6253 4.72642C79.7363 4.752 79.8372 4.76734 79.928 4.76734C80.276 4.76734 80.5585 4.67527 80.7703 4.48601C80.9822 4.29676 81.0881 4.05635 81.0881 3.75456C81.0881 3.49369 80.9569 3.23793 80.6997 2.99752L78.3189 0.864531C78.1323 0.695733 77.9255 0.552511 77.6985 0.429749C77.4665 0.306987 77.2243 0.245605 76.9671 0.245605C76.6544 0.245605 76.3315 0.368368 75.9986 0.608777C75.6657 0.854301 75.4993 1.18678 75.4993 1.61645C75.4993 1.89778 75.585 2.16888 75.7616 2.42975C75.9381 2.69062 76.1903 2.91568 76.5232 3.10494L76.5283 3.11006Z" fill="#FAF0E6"/>
<path d="M86.46 5.94372C86.1473 5.62659 85.7488 5.46802 85.2696 5.46802C84.7904 5.46802 84.3919 5.6317 84.0792 5.95907C83.7665 6.28643 83.6101 6.69052 83.6101 7.17646V7.21738C83.4487 7.06393 83.2722 6.91047 83.0704 6.75702C82.5811 6.38362 82.0061 6.07671 81.3403 5.83119C80.6745 5.59078 79.9481 5.46802 79.1562 5.46802C77.9204 5.46802 76.7956 5.8005 75.7818 6.46546C74.7679 7.13042 73.9608 8.04602 73.3606 9.21226C72.7604 10.3836 72.4628 11.734 72.4628 13.2634C72.4628 14.7928 72.7604 16.1176 73.3606 17.289C73.9608 18.4603 74.778 19.3759 75.807 20.0358C76.841 20.7008 77.991 21.0332 79.2621 21.0332C79.9633 21.0332 80.614 20.9156 81.2142 20.6803C81.8144 20.445 82.334 20.1637 82.7779 19.8261C83.1057 19.5754 83.3831 19.3248 83.6101 19.069C83.6152 19.5447 83.7715 19.9386 84.0792 20.2609C84.3919 20.5882 84.7904 20.7519 85.2696 20.7519C85.7488 20.7519 86.1473 20.5882 86.46 20.2609C86.7727 19.9335 86.9291 19.5294 86.9291 19.0384V7.17134C86.9291 6.66495 86.7727 6.25574 86.46 5.93861V5.94372ZM83.2369 15.647C82.8939 16.358 82.4197 16.9207 81.8144 17.3299C81.2041 17.7391 80.4979 17.9488 79.6858 17.9488C78.8738 17.9488 78.1928 17.7442 77.5825 17.3299C76.9721 16.9207 76.498 16.358 76.1601 15.647C75.8171 14.9361 75.6506 14.1432 75.6506 13.2634C75.6506 12.3836 75.8221 11.5601 76.1601 10.8491C76.5031 10.1381 76.9772 9.57544 77.5825 9.16623C78.1928 8.75702 78.8939 8.5473 79.6858 8.5473C80.4778 8.5473 81.2091 8.75191 81.8144 9.16623C82.4248 9.57544 82.8989 10.1381 83.2369 10.8491C83.5799 11.5601 83.7463 12.3632 83.7463 13.2634C83.7463 14.1637 83.5748 14.9361 83.2369 15.647Z" fill="#FAF0E6"/>
<path d="M14.0325 39.4425C13.6542 39.3862 13.2709 39.4527 12.8825 39.6369C12.4235 39.8824 11.9443 40.0461 11.4449 40.1433C10.9456 40.2353 10.4513 40.2814 9.95191 40.2814C9.04902 40.2814 8.20666 40.1484 7.43492 39.8773C6.65814 39.6062 5.98728 39.1919 5.4173 38.6292C4.84733 38.0665 4.39841 37.3658 4.07559 36.5269C3.75277 35.6829 3.59136 34.6957 3.59136 33.555C3.59136 32.5832 3.7326 31.6931 4.02011 30.8901C4.30762 30.087 4.72627 29.3913 5.28112 28.8031C5.83596 28.2149 6.50177 27.7596 7.28865 27.4425C8.07047 27.1254 8.96327 26.9668 9.95695 26.9668C10.4916 26.9668 11.0011 27.0231 11.4903 27.1356C11.9796 27.2481 12.4437 27.4067 12.8875 27.6113C13.2759 27.8006 13.6593 27.8722 14.0376 27.8364C14.4159 27.8005 14.7236 27.6113 14.9657 27.2737C15.3137 26.844 15.4499 26.3683 15.3642 25.8415C15.2784 25.3146 15.001 24.9361 14.5218 24.6906C13.8409 24.3376 13.1095 24.0665 12.3377 23.8773C11.561 23.688 10.769 23.5959 9.95695 23.5959C8.51939 23.5959 7.19281 23.8415 5.97215 24.3376C4.75653 24.8338 3.69728 25.5243 2.80449 26.4144C1.91169 27.3044 1.22066 28.353 0.731385 29.5704C0.242113 30.7878 0 32.1126 0 33.555C0 35.2174 0.267333 36.6803 0.802002 37.9438C1.33667 39.2072 2.06806 40.2558 3.00121 41.0998C3.93435 41.9387 4.99361 42.578 6.184 43.0077C7.3744 43.4374 8.63036 43.6522 9.96199 43.6522C10.4967 43.6522 11.0212 43.6113 11.5408 43.5243C12.0553 43.4374 12.5698 43.3197 13.0742 43.1612C13.5786 43.0026 14.0729 42.8031 14.5521 42.5576C15.0111 42.3325 15.2935 41.9745 15.3944 41.4783C15.4953 40.9821 15.3642 40.5013 14.996 40.0358C14.7387 39.6982 14.4209 39.5039 14.0426 39.4476L14.0325 39.4425Z" fill="#FAF0E6"/>
<path d="M28.3476 28.3633C27.8684 28.3633 27.4699 28.527 27.1572 28.8543C26.8445 29.1817 26.6881 29.5909 26.6881 30.0768V37.2022C26.6881 38.3428 26.4409 39.1868 25.9416 39.7392C25.4422 40.2917 24.6856 40.5679 23.6718 40.5679C22.6579 40.5679 21.9316 40.2917 21.4322 39.7392C20.9328 39.1868 20.6857 38.3428 20.6857 37.2022V30.0768C20.6857 29.5909 20.5293 29.1817 20.2166 28.8543C19.9039 28.527 19.5054 28.3633 19.0262 28.3633C18.547 28.3633 18.1485 28.527 17.8358 28.8543C17.5231 29.1817 17.3667 29.5909 17.3667 30.0768V37.2022C17.3667 39.1868 17.9064 40.7571 18.9858 41.9132C20.0653 43.0743 21.6289 43.6523 23.6718 43.6523C25.7146 43.6523 27.2833 43.0743 28.3728 41.9132C29.4623 40.752 30.0071 39.1817 30.0071 37.2022V30.0768C30.0071 29.5909 29.8507 29.1817 29.538 28.8543C29.2253 28.527 28.8268 28.3633 28.3476 28.3633Z" fill="#FAF0E6"/>
<path d="M34.4055 28.3633C33.9263 28.3633 33.5278 28.527 33.2151 28.8543C32.9023 29.1817 32.746 29.5909 32.746 30.0768V41.6625C32.746 42.1484 32.9023 42.5577 33.2151 42.8799C33.5278 43.2073 33.9263 43.371 34.4055 43.371C34.8846 43.371 35.2831 43.2073 35.5959 42.8799C35.9086 42.5525 36.0649 42.1484 36.0649 41.6625V30.0768C36.0649 29.5909 35.9086 29.1817 35.5959 28.8543C35.2831 28.527 34.8846 28.3633 34.4055 28.3633Z" fill="#FAF0E6"/>
<path d="M34.4054 23.2021C33.8152 23.2021 33.3764 23.2993 33.0889 23.4988C32.8014 23.6932 32.6602 24.0666 32.6602 24.6088V25.1408C32.6602 25.6625 32.7863 26.0308 33.0486 26.2354C33.3058 26.44 33.7497 26.5423 34.3751 26.5423C35.0006 26.5423 35.4546 26.4451 35.732 26.2456C36.0094 26.0513 36.1456 25.6779 36.1456 25.1357V24.6037C36.1456 24.0819 36.0145 23.7137 35.7572 23.5091C35.5 23.3044 35.046 23.2021 34.4004 23.2021H34.4054Z" fill="#FAF0E6"/>
<path d="M47.762 35.8209C47.2829 35.4833 46.7583 35.2122 46.1833 35.0076C45.6082 34.803 45.0483 34.624 44.4985 34.4756C43.9639 34.3273 43.4595 34.1738 42.9904 34.0102C42.5213 33.8516 42.148 33.647 41.8706 33.3912C41.5932 33.1406 41.457 32.7979 41.457 32.3682C41.457 31.9027 41.578 31.56 41.8151 31.3452C42.0572 31.1304 42.3347 30.9923 42.6575 30.9258C42.9803 30.8593 43.2779 30.8286 43.5553 30.8286C44.2363 30.8286 44.8415 30.9513 45.3661 31.1918C45.8907 31.4373 46.3094 31.7646 46.6271 32.1738C46.8642 32.3989 47.1719 32.5268 47.5401 32.5524C47.9083 32.5831 48.2311 32.4808 48.5086 32.2557C48.897 31.9386 49.0735 31.5805 49.0331 31.1918C48.9928 30.803 48.8768 30.4603 48.675 30.1841C48.2866 29.6777 47.8074 29.2736 47.2375 28.9616C46.6675 28.6547 46.0673 28.4296 45.4418 28.2864C44.8163 28.1483 44.2161 28.0767 43.6461 28.0767C42.7432 28.0767 41.8807 28.2557 41.0585 28.6086C40.2363 28.9667 39.5705 29.468 39.051 30.1227C38.5365 30.7774 38.2742 31.5703 38.2742 32.5063C38.2742 33.3299 38.4306 34.0102 38.7433 34.5524C39.056 35.0946 39.4646 35.5293 39.9589 35.8567C40.4583 36.1841 41.003 36.4501 41.6033 36.6547C42.2035 36.8593 42.7886 37.0485 43.3586 37.2173C43.9134 37.3657 44.4128 37.5242 44.8668 37.693C45.3207 37.8618 45.6839 38.0664 45.9613 38.312C46.2387 38.5575 46.3749 38.8848 46.3749 39.2941C46.3749 39.78 46.2488 40.138 46.0017 40.3733C45.7545 40.6086 45.462 40.757 45.1291 40.8235C44.7961 40.89 44.4935 40.9309 44.2161 40.9513C43.3334 40.9513 42.5919 40.803 42.0017 40.5012C41.4116 40.2045 40.8467 39.78 40.312 39.2378C39.9993 38.9207 39.6764 38.7467 39.3435 38.7212C39.0106 38.6956 38.6979 38.7723 38.4053 38.9616C37.9463 39.2582 37.7042 39.6163 37.684 40.0255C37.6639 40.4347 37.7496 40.7723 37.9312 41.0332C38.6525 42.005 39.5554 42.6854 40.6399 43.069C41.7294 43.4526 42.8138 43.6419 43.9034 43.6419C44.7709 43.6419 45.6183 43.468 46.4455 43.1253C47.2778 42.7774 47.9689 42.271 48.5187 41.5958C49.0735 40.9206 49.3509 40.1074 49.3509 39.1559C49.3509 38.3324 49.2046 37.6572 48.907 37.1201C48.6094 36.5882 48.2261 36.1534 47.7469 35.8158L47.762 35.8209Z" fill="#FAF0E6"/>
<path d="M52.9372 23.2021C52.3471 23.2021 51.9082 23.2993 51.6258 23.4988C51.3383 23.6932 51.197 24.0666 51.197 24.6088V25.1408C51.197 25.6625 51.3282 26.0308 51.5854 26.2354C51.8427 26.44 52.2865 26.5423 52.912 26.5423C53.5375 26.5423 53.9914 26.4451 54.2689 26.2456C54.5463 26.0513 54.6825 25.6779 54.6825 25.1357V24.6037C54.6825 24.0819 54.5513 23.7137 54.2941 23.5091C54.0368 23.3044 53.5829 23.2021 52.9372 23.2021Z" fill="#FAF0E6"/>
<path d="M52.9373 28.3633C52.4581 28.3633 52.0597 28.527 51.7469 28.8543C51.4342 29.1817 51.2778 29.5909 51.2778 30.0768V41.6625C51.2778 42.1484 51.4342 42.5577 51.7469 42.8799C52.0597 43.2073 52.4581 43.371 52.9373 43.371C53.4165 43.371 53.815 43.2073 54.1277 42.8799C54.4405 42.5525 54.5968 42.1484 54.5968 41.6625V30.0768C54.5968 29.5909 54.4405 29.1817 54.1277 28.8543C53.815 28.527 53.4165 28.3633 52.9373 28.3633Z" fill="#FAF0E6"/>
<path d="M68.3569 28.9514C67.6457 28.3733 66.6117 28.0818 65.2447 28.0818C64.6193 28.0818 64.0392 28.179 63.5045 28.3785C62.9699 28.5728 62.4907 28.8337 62.067 29.1508C61.6433 29.468 61.2751 29.8107 60.9623 30.1739C60.8463 30.3069 60.7555 30.4347 60.6597 30.5626V30.0767C60.6597 29.5907 60.5033 29.1815 60.1906 28.8542C59.8779 28.5268 59.4794 28.3631 59.0002 28.3631C58.521 28.3631 58.1225 28.5268 57.8098 28.8542C57.4971 29.1815 57.3407 29.5907 57.3407 30.0767V41.6624C57.3407 42.1483 57.4971 42.5575 57.8098 42.8797C58.1225 43.2071 58.521 43.3708 59.0002 43.3708C59.4794 43.3708 59.8779 43.2071 60.1906 42.8797C60.5033 42.5524 60.6597 42.1483 60.6597 41.6624V34.4808C60.6597 33.8618 60.7908 33.3094 61.0582 32.8132C61.3255 32.3171 61.7139 31.9181 62.2183 31.6214C62.7227 31.3248 63.3482 31.1713 64.0846 31.1713C64.821 31.1713 65.4213 31.3196 65.8298 31.6214C66.2334 31.9232 66.5158 32.3171 66.6722 32.8132C66.8286 33.3094 66.9093 33.867 66.9093 34.4808V41.6624C66.9093 42.1483 67.0656 42.5575 67.3783 42.8797C67.6911 43.2071 68.0896 43.3708 68.5687 43.3708C69.0479 43.3708 69.4464 43.2071 69.7591 42.8797C70.0719 42.5524 70.2282 42.1483 70.2282 41.6624V34.4808C70.2282 33.3043 70.092 32.2301 69.8298 31.2685C69.5624 30.3069 69.0732 29.5345 68.3619 28.9565L68.3569 28.9514Z" fill="#FAF0E6"/>
<path d="M84.4676 30.2813C83.8219 29.601 83.0805 29.0588 82.2431 28.67C81.4058 28.2762 80.513 28.0818 79.5748 28.0818C78.3592 28.0818 77.2041 28.3989 76.1197 29.0332C75.0301 29.6675 74.1525 30.5831 73.4766 31.7698C72.8057 32.9565 72.4678 34.3938 72.4678 36.0767C72.4678 37.5191 72.7755 38.8081 73.3959 39.9488C74.0112 41.0895 74.899 41.9948 76.049 42.6547C77.1991 43.3196 78.561 43.6521 80.1297 43.6521C81.0527 43.6521 81.9455 43.4987 82.8131 43.1866C83.6807 42.8797 84.3515 42.5166 84.8307 42.1074C85.3452 41.6982 85.6075 41.2378 85.6075 40.7314C85.6075 40.358 85.4713 40.0306 85.209 39.7493C84.9417 39.468 84.6037 39.3299 84.2002 39.3299C83.9026 39.3299 83.5899 39.4168 83.257 39.5805C83.0552 39.693 82.8282 39.8311 82.5811 39.9897C82.3339 40.1483 82.0061 40.2864 81.5975 40.3938C81.194 40.5063 80.6492 40.5626 79.9632 40.5626C79.2268 40.5626 78.5307 40.3785 77.875 40.0153C77.2193 39.6521 76.6846 39.1202 76.271 38.4143C76.0289 38.0051 75.8675 37.5396 75.7666 37.0281H84.8862C85.3301 37.0281 85.7185 36.89 86.0463 36.6086C86.3792 36.3273 86.5507 35.9641 86.5709 35.514C86.5709 34.5063 86.3793 33.5498 86.006 32.6547C85.6277 31.7595 85.1182 30.9667 84.4726 30.2864L84.4676 30.2813ZM76.7754 32.1483C77.1234 31.7953 77.5421 31.5396 78.0213 31.3913C78.5004 31.2429 79.0149 31.1662 79.5698 31.1662C80.1246 31.1662 80.6795 31.2941 81.1889 31.5447C81.6933 31.7953 82.1221 32.1381 82.46 32.5677C82.803 32.9974 82.9897 33.4833 83.025 34.0255V34.2199H75.7817C75.8271 33.9897 75.8775 33.7698 75.9431 33.5754C76.1449 32.9769 76.4223 32.5012 76.7754 32.1432V32.1483Z" fill="#FAF0E6"/>
</svg>
